%TF.GenerationSoftware,KiCad,Pcbnew,7.0.8-7.0.8~ubuntu23.04.1*%
%TF.CreationDate,2023-10-06T20:00:32+03:00*%
%TF.ProjectId,joyride,6a6f7972-6964-4652-9e6b-696361645f70,v1.0.0*%
%TF.SameCoordinates,Original*%
%TF.FileFunction,Soldermask,Top*%
%TF.FilePolarity,Negative*%
%FSLAX46Y46*%
G04 Gerber Fmt 4.6, Leading zero omitted, Abs format (unit mm)*
G04 Created by KiCad (PCBNEW 7.0.8-7.0.8~ubuntu23.04.1) date 2023-10-06 20:00:32*
%MOMM*%
%LPD*%
G01*
G04 APERTURE LIST*
G04 Aperture macros list*
%AMRoundRect*
0 Rectangle with rounded corners*
0 $1 Rounding radius*
0 $2 $3 $4 $5 $6 $7 $8 $9 X,Y pos of 4 corners*
0 Add a 4 corners polygon primitive as box body*
4,1,4,$2,$3,$4,$5,$6,$7,$8,$9,$2,$3,0*
0 Add four circle primitives for the rounded corners*
1,1,$1+$1,$2,$3*
1,1,$1+$1,$4,$5*
1,1,$1+$1,$6,$7*
1,1,$1+$1,$8,$9*
0 Add four rect primitives between the rounded corners*
20,1,$1+$1,$2,$3,$4,$5,0*
20,1,$1+$1,$4,$5,$6,$7,0*
20,1,$1+$1,$6,$7,$8,$9,0*
20,1,$1+$1,$8,$9,$2,$3,0*%
G04 Aperture macros list end*
%ADD10C,3.529000*%
%ADD11C,1.801800*%
%ADD12C,2.132000*%
%ADD13RoundRect,0.450050X-0.899950X-0.400050X0.899950X-0.400050X0.899950X0.400050X-0.899950X0.400050X0*%
%ADD14RoundRect,0.443700X-0.393700X-0.906300X0.393700X-0.906300X0.393700X0.906300X-0.393700X0.906300X0*%
%ADD15RoundRect,0.450000X-0.400000X-0.900000X0.400000X-0.900000X0.400000X0.900000X-0.400000X0.900000X0*%
%ADD16RoundRect,0.450000X-0.900000X-0.400000X0.900000X-0.400000X0.900000X0.400000X-0.900000X0.400000X0*%
%ADD17C,1.600000*%
%ADD18O,1.700000X2.300000*%
G04 APERTURE END LIST*
D10*
%TO.C,S1*%
X95600076Y-100579261D03*
D11*
X90287484Y-102002766D03*
X100912668Y-99155756D03*
D12*
X91753959Y-105543874D03*
X97127108Y-106278223D03*
X101413218Y-102955684D03*
X97127108Y-106278223D03*
%TD*%
D10*
%TO.C,S2*%
X91200152Y-84158522D03*
D11*
X85887560Y-85582027D03*
X96512744Y-82735017D03*
D12*
X87354035Y-89123135D03*
X92727184Y-89857484D03*
X97013294Y-86534945D03*
X92727184Y-89857484D03*
%TD*%
D10*
%TO.C,S3*%
X86800229Y-67737783D03*
D11*
X81487637Y-69161288D03*
X92112821Y-66314278D03*
D12*
X82954112Y-72702396D03*
X88327261Y-73436745D03*
X92613371Y-70114206D03*
X88327261Y-73436745D03*
%TD*%
D10*
%TO.C,S4*%
X112364094Y-87872119D03*
D11*
X106947651Y-88827184D03*
X117780537Y-86917054D03*
D12*
X108099918Y-92482629D03*
X113388618Y-93682485D03*
X117947996Y-90746148D03*
X113388618Y-93682485D03*
%TD*%
D10*
%TO.C,S5*%
X109412074Y-71130387D03*
D11*
X103995631Y-72085452D03*
X114828517Y-70175322D03*
D12*
X105147898Y-75740897D03*
X110436598Y-76940753D03*
X114995976Y-74004416D03*
X110436598Y-76940753D03*
%TD*%
D10*
%TO.C,S6*%
X106460055Y-54388655D03*
D11*
X101043612Y-55343720D03*
X111876498Y-53433590D03*
D12*
X102195879Y-58999165D03*
X107484579Y-60199021D03*
X112043957Y-57262684D03*
X107484579Y-60199021D03*
%TD*%
D10*
%TO.C,S7*%
X130776237Y-78954865D03*
D11*
X125297166Y-79434222D03*
X136255308Y-78475508D03*
D12*
X126126455Y-83176184D03*
X131290456Y-84832414D03*
X136088402Y-82304626D03*
X131290456Y-84832414D03*
%TD*%
D10*
%TO.C,S8*%
X129493828Y-62002124D03*
D11*
X124014757Y-62481481D03*
X134972899Y-61522767D03*
D12*
X124844046Y-66223443D03*
X130008047Y-67879673D03*
X134805993Y-65351885D03*
X130008047Y-67879673D03*
%TD*%
D10*
%TO.C,S9*%
X128211420Y-45049383D03*
D11*
X122732349Y-45528740D03*
X133690491Y-44570026D03*
D12*
X123561638Y-49270702D03*
X128725639Y-50926932D03*
X133523585Y-48399144D03*
X128725639Y-50926932D03*
%TD*%
D10*
%TO.C,S10*%
X150484033Y-82983906D03*
D11*
X144984033Y-82983906D03*
X155984033Y-82983906D03*
D12*
X145484033Y-86783906D03*
X150484033Y-88883906D03*
X155484033Y-86783906D03*
X150484033Y-88883906D03*
%TD*%
D10*
%TO.C,S11*%
X150484033Y-65983906D03*
D11*
X144984033Y-65983906D03*
X155984033Y-65983906D03*
D12*
X145484033Y-69783906D03*
X150484033Y-71883906D03*
X155484033Y-69783906D03*
X150484033Y-71883906D03*
%TD*%
D10*
%TO.C,S12*%
X150484033Y-48983906D03*
D11*
X144984033Y-48983906D03*
X155984033Y-48983906D03*
D12*
X145484033Y-52783906D03*
X150484033Y-54883906D03*
X155484033Y-52783906D03*
X150484033Y-54883906D03*
%TD*%
D10*
%TO.C,S13*%
X168484033Y-85817239D03*
D11*
X162984033Y-85817239D03*
X173984033Y-85817239D03*
D12*
X163484033Y-89617239D03*
X168484033Y-91717239D03*
X173484033Y-89617239D03*
X168484033Y-91717239D03*
%TD*%
D10*
%TO.C,S14*%
X168484033Y-68817239D03*
D11*
X162984033Y-68817239D03*
X173984033Y-68817239D03*
D12*
X163484033Y-72617239D03*
X168484033Y-74717239D03*
X173484033Y-72617239D03*
X168484033Y-74717239D03*
%TD*%
D10*
%TO.C,S15*%
X168484033Y-51817239D03*
D11*
X162984033Y-51817239D03*
X173984033Y-51817239D03*
D12*
X163484033Y-55617239D03*
X168484033Y-57717239D03*
X173484033Y-55617239D03*
X168484033Y-57717239D03*
%TD*%
D10*
%TO.C,S16*%
X168484033Y-109817239D03*
D11*
X163171441Y-108393734D03*
X173796625Y-111240744D03*
D12*
X162670891Y-112193662D03*
X166957001Y-115516201D03*
X172330150Y-114781852D03*
X166957001Y-115516201D03*
%TD*%
D10*
%TO.C,S17*%
X186890228Y-116516546D03*
D11*
X181905535Y-114192146D03*
X191874921Y-118840946D03*
D12*
X180752740Y-117847424D03*
X184396780Y-121863762D03*
X189815818Y-122073607D03*
X184396780Y-121863762D03*
%TD*%
D13*
%TO.C,RP2040Zero1*%
X182424033Y-69577239D03*
X182424033Y-72117239D03*
X182424033Y-67037239D03*
X182424033Y-64497239D03*
X182424033Y-61957239D03*
X182424033Y-74657239D03*
X182424033Y-77197239D03*
X182424033Y-79737239D03*
X182424033Y-82277239D03*
D14*
X185564033Y-83087239D03*
X188104033Y-83087239D03*
X190644033Y-83087239D03*
X193184033Y-83087239D03*
D15*
X195724033Y-83087239D03*
D13*
X198864033Y-82277239D03*
X198864033Y-79737239D03*
X198864033Y-77197239D03*
X198864033Y-74657239D03*
D16*
X198864033Y-72117239D03*
X198864033Y-69577239D03*
X198864033Y-67037239D03*
X198864033Y-64497239D03*
X198864033Y-61957239D03*
D13*
X182424033Y-69577239D03*
X182424033Y-72117239D03*
X182424033Y-67037239D03*
X182424033Y-64497239D03*
X182424033Y-61957239D03*
X182424033Y-74657239D03*
X182424033Y-77197239D03*
X182424033Y-79737239D03*
X182424033Y-82277239D03*
D14*
X185564033Y-83087239D03*
X188104033Y-83087239D03*
X190644033Y-83087239D03*
X193184033Y-83087239D03*
D15*
X195724033Y-83087239D03*
D13*
X198864033Y-82277239D03*
X198864033Y-79737239D03*
X198864033Y-77197239D03*
X198864033Y-74657239D03*
D16*
X198864033Y-72117239D03*
X198864033Y-69577239D03*
X198864033Y-67037239D03*
X198864033Y-64497239D03*
X198864033Y-61957239D03*
%TD*%
D17*
%TO.C,TRRS1*%
X209380000Y-70790000D03*
X209380000Y-63790000D03*
D18*
X211680000Y-73490000D03*
X207080000Y-72390000D03*
X207080000Y-68390000D03*
X207080000Y-65390000D03*
X207080000Y-73490000D03*
X211680000Y-72390000D03*
X211680000Y-68390000D03*
X211680000Y-65390000D03*
%TD*%
M02*
