M48
; DRILL file {KiCad 7.0.8-7.0.8~ubuntu23.04.1} date Fri 06 Oct 2023 08:00:25 PM EEST
; FORMAT={-:-/ absolute / inch / decimal}
; #@! TF.CreationDate,2023-10-06T20:00:25+03:00
; #@! TF.GenerationSoftware,Kicad,Pcbnew,7.0.8-7.0.8~ubuntu23.04.1
; #@! TF.FileFunction,Plated,1,2,PTH
FMAT,2
INCH
; #@! TA.AperFunction,Plated,PTH,ComponentDrill
T1C0.0354
; #@! TA.AperFunction,Plated,PTH,ComponentDrill
T2C0.0430
; #@! TA.AperFunction,Plated,PTH,ComponentDrill
T3C0.0500
%
G90
G05
T2
X7.2057Y-2.4393
X7.2057Y-2.4393
X7.2057Y-2.5393
X7.2057Y-2.5393
X7.2057Y-2.6393
X7.2057Y-2.6393
X7.2057Y-2.7393
X7.2057Y-2.7393
X7.2057Y-2.8393
X7.2057Y-2.8393
X7.2057Y-2.9393
X7.2057Y-2.9393
X7.2057Y-3.0393
X7.2057Y-3.0393
X7.2057Y-3.1393
X7.2057Y-3.1393
X7.2057Y-3.2393
X7.2057Y-3.2393
X7.3057Y-3.2475
X7.3057Y-3.2475
X7.4057Y-3.2475
X7.4057Y-3.2475
X7.5057Y-3.2475
X7.5057Y-3.2475
X7.6057Y-3.2475
X7.6057Y-3.2475
X7.7057Y-3.2475
X7.7057Y-3.2475
X7.8057Y-2.4393
X7.8057Y-2.4393
X7.8057Y-2.5393
X7.8057Y-2.5393
X7.8057Y-2.6393
X7.8057Y-2.6393
X7.8057Y-2.7393
X7.8057Y-2.7393
X7.8057Y-2.8393
X7.8057Y-2.8393
X7.8057Y-2.9393
X7.8057Y-2.9393
X7.8057Y-3.0393
X7.8057Y-3.0393
X7.8057Y-3.1393
X7.8057Y-3.1393
X7.8057Y-3.2393
X7.8057Y-3.2393
T3
X3.2659Y-2.8623
X3.4391Y-3.5088
X3.4775Y-2.8912
X3.4775Y-2.8912
X3.6124Y-4.1553
X3.6462Y-2.7604
X3.6507Y-3.5377
X3.6507Y-3.5377
X3.8194Y-3.4069
X3.8239Y-4.1842
X3.8239Y-4.1842
X3.9926Y-4.0534
X4.0235Y-2.3228
X4.1397Y-2.9819
X4.2317Y-2.37
X4.2317Y-2.37
X4.2559Y-3.641
X4.3479Y-3.0292
X4.3479Y-3.0292
X4.4112Y-2.2544
X4.4641Y-3.6883
X4.4641Y-3.6883
X4.5274Y-2.9136
X4.6436Y-3.5727
X4.8646Y-1.9398
X4.9151Y-2.6072
X4.9656Y-3.2747
X5.0679Y-2.005
X5.0679Y-2.005
X5.1184Y-2.6724
X5.1184Y-2.6724
X5.1689Y-3.3399
X5.1689Y-3.3399
X5.2568Y-1.9055
X5.3073Y-2.5729
X5.3578Y-3.2403
X5.7277Y-2.0781
X5.7277Y-2.7474
X5.7277Y-3.4167
X5.9246Y-2.1608
X5.9246Y-2.1608
X5.9246Y-2.8301
X5.9246Y-2.8301
X5.9246Y-3.4994
X5.9246Y-3.4994
X6.1214Y-2.0781
X6.1214Y-2.7474
X6.1214Y-3.4167
X6.4044Y-4.4171
X6.4364Y-2.1897
X6.4364Y-2.8589
X6.4364Y-3.5282
X6.5731Y-4.5479
X6.5731Y-4.5479
X6.6332Y-2.2723
X6.6332Y-2.2723
X6.6332Y-2.9416
X6.6332Y-2.9416
X6.6332Y-3.6109
X6.6332Y-3.6109
X6.7847Y-4.519
X6.8301Y-2.1897
X6.8301Y-2.8589
X6.8301Y-3.5282
X7.1162Y-4.6397
X7.2597Y-4.7978
X7.2597Y-4.7978
X7.4731Y-4.806
T1
G00X8.1528Y-2.5626
M15
G01X8.1528Y-2.5862
M16
G05
G00X8.1528Y-2.6807
M15
G01X8.1528Y-2.7043
M16
G05
G00X8.1528Y-2.8382
M15
G01X8.1528Y-2.8618
M16
G05
G00X8.1528Y-2.8815
M15
G01X8.1528Y-2.9051
M16
G05
G00X8.3339Y-2.5626
M15
G01X8.3339Y-2.5862
M16
G05
G00X8.3339Y-2.6807
M15
G01X8.3339Y-2.7043
M16
G05
G00X8.3339Y-2.8382
M15
G01X8.3339Y-2.8618
M16
G05
G00X8.3339Y-2.8815
M15
G01X8.3339Y-2.9051
M16
G05
T0
M30
