M48
; DRILL file {KiCad 7.0.8-7.0.8~ubuntu23.04.1} date Fri 06 Oct 2023 08:00:25 PM EEST
; FORMAT={-:-/ absolute / inch / decimal}
; #@! TF.CreationDate,2023-10-06T20:00:25+03:00
; #@! TF.GenerationSoftware,Kicad,Pcbnew,7.0.8-7.0.8~ubuntu23.04.1
; #@! TF.FileFunction,NonPlated,1,2,NPTH
FMAT,2
INCH
; #@! TA.AperFunction,NonPlated,NPTH,ComponentDrill
T1C0.0591
; #@! TA.AperFunction,NonPlated,NPTH,ComponentDrill
T2C0.0670
; #@! TA.AperFunction,NonPlated,NPTH,ComponentDrill
T3C0.1350
%
G90
G05
T1
X8.2433Y-2.5114
X8.2433Y-2.787
T2
X3.2082Y-2.7229
X3.3814Y-3.3694
X3.5546Y-4.0159
X3.6265Y-2.6108
X3.7997Y-3.2573
X3.9729Y-3.9038
X3.9781Y-2.1789
X4.0943Y-2.838
X4.2105Y-3.4971
X4.4046Y-2.1037
X4.5208Y-2.7628
X4.637Y-3.4219
X4.832Y-1.7925
X4.8825Y-2.4599
X4.933Y-3.1273
X5.2634Y-1.7547
X5.3139Y-2.4222
X5.3644Y-3.0896
X5.708Y-1.9285
X5.708Y-2.5978
X5.708Y-3.2671
X6.1411Y-1.9285
X6.1411Y-2.5978
X6.1411Y-3.2671
X6.4167Y-2.04
X6.4167Y-2.7093
X6.4167Y-3.3786
X6.4241Y-4.2675
X6.8424Y-4.3796
X6.8498Y-2.04
X6.8498Y-2.7093
X6.8498Y-3.3786
X7.1616Y-4.4958
X7.5541Y-4.6788
T3
X3.4173Y-2.6668
X3.5906Y-3.3133
X3.7638Y-3.9598
X4.1913Y-2.1413
X4.3076Y-2.8004
X4.4238Y-3.4595
X5.0477Y-1.7736
X5.0982Y-2.441
X5.1487Y-3.1085
X5.9246Y-1.9285
X5.9246Y-2.5978
X5.9246Y-3.2671
X6.6332Y-2.04
X6.6332Y-2.7093
X6.6332Y-3.3786
X6.6332Y-4.3235
X7.3579Y-4.5873
T0
M30
