%TF.GenerationSoftware,KiCad,Pcbnew,7.0.8-7.0.8~ubuntu23.04.1*%
%TF.CreationDate,2023-10-06T20:00:32+03:00*%
%TF.ProjectId,joyride,6a6f7972-6964-4652-9e6b-696361645f70,v1.0.0*%
%TF.SameCoordinates,Original*%
%TF.FileFunction,Profile,NP*%
%FSLAX46Y46*%
G04 Gerber Fmt 4.6, Leading zero omitted, Abs format (unit mm)*
G04 Created by KiCad (PCBNEW 7.0.8-7.0.8~ubuntu23.04.1) date 2023-10-06 20:00:32*
%MOMM*%
%LPD*%
G01*
G04 APERTURE LIST*
%TA.AperFunction,Profile*%
%ADD10C,0.150000*%
%TD*%
%TA.AperFunction,Profile*%
%ADD11C,0.120000*%
%TD*%
G04 APERTURE END LIST*
D10*
X89883163Y-114016779D02*
X105144494Y-109927518D01*
X105144494Y-109927518D02*
X172315298Y-127925881D01*
X172315298Y-127925881D02*
X188073797Y-135274189D01*
X188073797Y-135274189D02*
G75*
G03*
X192060574Y-133823120I1267854J2718923D01*
G01*
X194173666Y-129291582D02*
X192060575Y-133823121D01*
X194173666Y-129291582D02*
X199757394Y-117317239D01*
X201484033Y-117317239D02*
X199757394Y-117317239D01*
X201484033Y-117317239D02*
G75*
G03*
X204484033Y-114317239I0J3000000D01*
G01*
X204484033Y-114317239D02*
X204484033Y-80317239D01*
X210484033Y-80317239D02*
X204484033Y-80317239D01*
X210484033Y-80317239D02*
G75*
G03*
X213484033Y-77317239I0J3000000D01*
G01*
X213484033Y-77317239D02*
X213484033Y-60317239D01*
X213484033Y-60317239D02*
G75*
G03*
X210484033Y-57317239I-3000000J0D01*
G01*
X180484033Y-57317239D02*
X210484033Y-57317239D01*
X180484033Y-57317239D02*
X180484033Y-43317239D01*
X180484033Y-43317239D02*
G75*
G03*
X177484033Y-40317239I-3000000J0D01*
G01*
X162479400Y-40317239D02*
X177484033Y-40317239D01*
X162479400Y-40317239D02*
G75*
G03*
X159484033Y-37483906I-2995367J-166667D01*
G01*
X139595364Y-37483906D02*
X159484033Y-37483906D01*
X139595364Y-37483906D02*
X139424932Y-35535859D01*
X139424931Y-35535859D02*
G75*
G03*
X136174881Y-32808743I-2988583J-261467D01*
G01*
X136174881Y-32808742D02*
X118243376Y-34377546D01*
X118243376Y-34377547D02*
G75*
G03*
X115516261Y-37627598I261468J-2988583D01*
G01*
X115516259Y-37627597D02*
X115816680Y-41061424D01*
X95599832Y-44626200D02*
X115816680Y-41061424D01*
X95599832Y-44626201D02*
G75*
G03*
X93166354Y-48101567I520944J-2954422D01*
G01*
X93166353Y-48101567D02*
X94180751Y-53854502D01*
X75130477Y-58959007D02*
X94180751Y-53854502D01*
X75130477Y-58959007D02*
G75*
G03*
X73009156Y-62633242I776457J-2897778D01*
G01*
X73009157Y-62633242D02*
X77409081Y-79053981D01*
X77409281Y-79054729D02*
X78703176Y-83883610D01*
X78703176Y-83883610D02*
X86208928Y-111895459D01*
X86208928Y-111895459D02*
G75*
G03*
X89883163Y-114016780I2897778J776457D01*
G01*
D11*
%TO.C,RP2040Zero1*%
X195984033Y-74317239D02*
X185484033Y-74317239D01*
X195984033Y-74317239D02*
X195984033Y-79687239D01*
X185484033Y-79687239D02*
X185484033Y-74317239D01*
X185484033Y-79687239D02*
X195984033Y-79687239D01*
%TD*%
M02*
